<svg fill="none" xmlns="http://www.w3.org/2000/svg" viewBox="0 0 50 50">
  <g clip-path="url(#clip0)" fill="#23D997">
    <path d="M49.904 27.31a19.764 19.764 0 00-5.68-11.987 19.61 19.61 0 00-9.648-5.297V7.545a3.326 3.326 0 002.52-3.223c0-1.83-1.49-3.32-3.321-3.32h-7.031c-1.831 0-3.32 1.49-3.32 3.32a3.326 3.326 0 002.518 3.223v2.488a19.61 19.61 0 00-9.617 5.29c-.6.6-1.152 1.228-1.658 1.881l-.074-.003h-6.96a.977.977 0 000 1.953h5.705a19.572 19.572 0 00-1.733 3.754H.977a.977.977 0 000 1.953h10.076a19.852 19.852 0 00-.484 3.753H6.25a.977.977 0 000 1.953h4.35c.082 1.265.285 2.522.61 3.754H4.883a.977.977 0 000 1.953h6.95a19.612 19.612 0 004.492 6.947 19.763 19.763 0 0011.999 5.682 19.774 19.774 0 0012.701-3.087.977.977 0 10-1.066-1.636c-6.988 4.55-16.347 3.566-22.253-2.34-6.93-6.93-6.93-18.206 0-25.136s18.206-6.93 25.136 0c5.898 5.898 6.888 15.25 2.352 22.234a.977.977 0 101.638 1.064 19.79 19.79 0 003.072-12.692zM25.376 4.323c0-.754.614-1.368 1.367-1.368h7.032a1.369 1.369 0 010 2.734h-7.031a1.369 1.369 0 01-1.368-1.366zm2.52 5.374V7.643h4.727v2.05a19.898 19.898 0 00-4.728.004z"/>
    <path d="M43.533 41.553a.982.982 0 00-.977.977.98.98 0 00.977.977.981.981 0 00.977-.977.983.983 0 00-.287-.69.986.986 0 00-.69-.287zM30.274 14.122c-8.353 0-15.15 6.796-15.15 15.15 0 8.353 6.797 15.15 15.15 15.15 8.353 0 15.15-6.797 15.15-15.15 0-8.354-6.797-15.15-15.15-15.15zm0 28.346c-7.277 0-13.196-5.92-13.196-13.196 0-7.277 5.92-13.197 13.196-13.197 7.277 0 13.196 5.92 13.196 13.197 0 7.276-5.92 13.196-13.196 13.196z"/>
    <path d="M36.452 21.713l-4.837 4.837a3.016 3.016 0 00-2.681 0l-2.165-2.165a.977.977 0 00-1.381 1.381l2.164 2.165c-.2.405-.313.86-.313 1.34a3.038 3.038 0 003.035 3.035 3.038 3.038 0 003.035-3.034c0-.481-.113-.936-.313-1.34l4.695-4.696.142-.142a.976.976 0 10-1.381-1.38zm-6.178 8.64a1.083 1.083 0 010-2.163 1.083 1.083 0 010 2.163zM40.715 28.307h-.904a.977.977 0 100 1.953h.904a.977.977 0 000-1.953zM20.737 28.283h-.904a.977.977 0 000 1.953h.904a.977.977 0 100-1.953zM30.286 20.712c.54 0 .976-.438.976-.977v-.905a.977.977 0 00-1.953 0v.905c0 .54.438.977.977.977zM30.262 37.832a.977.977 0 00-.977.977v.904a.977.977 0 001.954 0v-.904a.977.977 0 00-.977-.977zM.977 34.32a.984.984 0 00-.69.287.984.984 0 00-.287.69c0 .258.104.51.286.69a.984.984 0 00.69.287.984.984 0 00.69-.286.984.984 0 00.287-.69.984.984 0 00-.286-.691.984.984 0 00-.69-.286z"/>
  </g>
  <defs>
    <clipPath id="clip0">
      <path fill="#fff" d="M0 0h50v50H0z"/>
    </clipPath>
  </defs>
</svg>
