<svg fill="none" xmlns="http://www.w3.org/2000/svg" viewBox="0 0 50 50">
  <path d="M40.527 5.433L27.495 14.9l21.836 15.865A24.98 24.98 0 0050 25.012c0-7.923-3.705-14.995-9.473-19.58zM37.987 3.657A24.849 24.849 0 0025 .012c-5.108 0-9.861 1.54-13.824 4.18l4.98 15.326 21.83-15.86zM8.705 6.068C3.378 10.656 0 17.446 0 25.012c0 2.325.32 4.576.917 6.713h16.125L8.705 6.068zM1.935 34.654c3.653 8.704 12.093 14.92 22.009 15.334l4.982-15.334H1.936zM27.043 49.928c9.83-.799 18.068-7.307 21.387-16.196l-13.045-9.477-8.342 25.673z" fill="#23D997"/>
</svg>
