<svg fill="none" xmlns="http://www.w3.org/2000/svg" viewBox="0 0 55 50">
  <path d="M44.31 24.43c5.6-4.6 6.07-12.5 1.03-17.62-4.62-4.7-12.35-5.5-18-1.86-6.16-3.97-14.67-2.63-19.02 3-3.98 5.17-3.11 12.25 2.03 16.48C3.95 27.51-.03 33.58 0 40.2v5.36c0 .98.87 1.78 1.95 1.78h50.76c1.08 0 1.95-.8 1.95-1.78v-5.36c.03-6.6-3.96-12.68-10.34-15.76zM35.14 6.26c5.38 0 9.75 3.98 9.76 8.9 0 3.52-2.25 6.7-5.75 8.15l-.45.18c-.48.17-.98.32-1.49.42l-.3.05a10.65 10.65 0 01-2.5.12c-.09 0-.19 0-.28-.02a10.56 10.56 0 01-3.2-.86c-.03-.02-.08-.02-.11-.03-.2-.09-.4-.16-.57-.26l.04-.05c.9-1.05 1.6-2.23 2.1-3.49l.06-.15c.22-.6.4-1.21.51-1.83l.05-.28c.11-.64.17-1.28.18-1.92 0-.64-.07-1.28-.18-1.92l-.05-.27c-.12-.63-.3-1.24-.51-1.84l-.07-.15a12.25 12.25 0 00-2.09-3.48l-.04-.06a10.4 10.4 0 014.89-1.2zM9.76 15.2c-.01-4.92 4.33-8.92 9.71-8.93a10.24 10.24 0 018.02 3.81c.1.11.17.23.25.34.27.39.51.79.72 1.2l.12.32c.21.46.37.94.49 1.42l.03.17a7.7 7.7 0 010 3.36l-.03.16c-.12.49-.28.97-.49 1.43l-.12.3c-.2.42-.45.83-.72 1.2l-.25.35a9.38 9.38 0 01-3.95 3l-.48.18c-.47.17-.96.3-1.45.4-.12.03-.25.04-.37.06-.53.1-1.07.14-1.61.15h-.22c-.53 0-1.07-.06-1.6-.15l-.38-.05c-.49-.1-.97-.24-1.45-.41l-.48-.18c-3.49-1.45-5.73-4.62-5.74-8.13zm25.38 28.57H3.9V40.2c-.02-6.05 4.14-11.45 10.39-13.46a14.8 14.8 0 0010.47 0c.65.22 1.28.48 1.9.77.4.2.78.41 1.17.63.25.15.51.29.76.45a15.19 15.19 0 012.65 2.19 14.5 14.5 0 012.41 3.35c.17.32.31.67.45 1.01l.36.9c.13.4.23.84.32 1.27.06.25.14.5.18.75.12.71.18 1.42.18 2.14v3.57zm15.62 0H39.04V40.2c0-.56-.03-1.11-.09-1.66l-.06-.48a15.64 15.64 0 00-.63-2.85l-.12-.4a17.08 17.08 0 00-2.35-4.5l-.08-.1c-.34-.46-.7-.9-1.08-1.33l-.01-.01a16.8 16.8 0 00-1.26-1.28h.08c.55.06 1.1.1 1.66.1h.11c.51 0 1.03-.03 1.54-.09l.48-.07c.41-.05.82-.13 1.23-.22l.35-.09c.53-.13 1.05-.29 1.56-.48 6.24 2 10.42 7.4 10.39 13.46v3.57z" fill="#23D997"/>
  <defs>
    <clipPath id="clip0">
      <path fill="#fff" d="M0 0h54.66v50H0z"/>
    </clipPath>
  </defs>
</svg>
